<svg width="479" height="620" viewBox="0 0 479 620" fill="none" xmlns="http://www.w3.org/2000/svg">
<path d="M0.232938 233.986C1.32627 203.119 7.54627 173.466 18.8929 145.026C48.1029 71.7759 114.213 20.7259 190.743 5.08588C263.533 -9.80412 339.063 8.25588 396.453 55.9159C463.133 111.286 487.133 199.926 475.623 283.426C474.356 292.639 471.74 302.123 467.773 311.876C459.906 331.216 450.17 350.203 438.563 368.836C408.653 416.856 374.343 462.266 338.413 505.916C309.253 541.336 277.95 577.293 244.503 613.786C242.256 616.233 240.583 618.023 239.483 619.156C239.216 619.429 238.953 619.426 238.693 619.146C188.226 564.746 140.443 508.083 95.3429 449.156C64.1229 408.376 33.0929 364.296 12.5329 317.446C1.23294 291.726 -0.787062 262.816 0.232938 233.986ZM389.853 212.516C389.853 192.732 385.956 173.142 378.385 154.865C370.815 136.587 359.718 119.979 345.729 105.99C331.739 92.0011 315.132 80.9043 296.854 73.3334C278.576 65.7626 258.987 61.8659 239.203 61.8659C199.248 61.8659 160.93 77.7379 132.677 105.99C104.425 134.243 88.5529 172.561 88.5529 212.516C88.5529 252.471 104.425 290.789 132.677 319.042C160.93 347.294 199.248 363.166 239.203 363.166C258.987 363.166 278.576 359.269 296.854 351.698C315.132 344.127 331.739 333.031 345.729 319.042C359.718 305.052 370.815 288.445 378.385 270.167C385.956 251.889 389.853 232.3 389.853 212.516Z" fill="#DCB038"/>
<path d="M218.576 253.561L224.354 254.026C224.425 254.031 224.49 254.062 224.539 254.113C224.587 254.164 224.613 254.231 224.613 254.3L224.419 272.472C224.419 272.545 224.39 272.614 224.338 272.666C224.286 272.717 224.215 272.746 224.142 272.746H189C188.964 272.746 188.928 272.739 188.894 272.725C188.86 272.711 188.83 272.691 188.804 272.666C188.778 272.64 188.758 272.61 188.744 272.577C188.73 272.544 188.723 272.508 188.723 272.472L188.741 254.319C188.741 254.249 188.768 254.182 188.816 254.131C188.864 254.08 188.93 254.049 189 254.045L195.943 253.588C195.998 253.586 196.05 253.569 196.095 253.538C196.139 253.508 196.173 253.464 196.193 253.415L214.203 204.507C214.217 204.468 214.222 204.426 214.218 204.385C214.213 204.343 214.199 204.304 214.177 204.268C214.155 204.233 214.125 204.204 214.089 204.182C214.054 204.16 214.014 204.146 213.972 204.141L206.779 203.374C206.71 203.367 206.647 203.336 206.601 203.285C206.554 203.234 206.529 203.168 206.529 203.1V187.239C206.529 187.203 206.537 187.167 206.55 187.134C206.564 187.101 206.585 187.071 206.611 187.045C206.636 187.02 206.667 187 206.701 186.986C206.734 186.972 206.77 186.965 206.807 186.965L249.344 186.746C249.401 186.746 249.457 186.764 249.503 186.797C249.549 186.83 249.584 186.876 249.603 186.929L273.789 253.396C273.808 253.445 273.841 253.487 273.884 253.518C273.926 253.548 273.977 253.567 274.029 253.57L280.464 254.026C280.534 254.031 280.6 254.062 280.648 254.113C280.696 254.164 280.723 254.231 280.723 254.3V272.472C280.723 272.508 280.716 272.544 280.702 272.577C280.688 272.61 280.667 272.64 280.642 272.666C280.616 272.691 280.585 272.711 280.552 272.725C280.518 272.739 280.482 272.746 280.446 272.746H245.406C245.369 272.746 245.333 272.739 245.3 272.725C245.266 272.711 245.235 272.691 245.21 272.666C245.184 272.64 245.164 272.61 245.15 272.577C245.136 272.544 245.128 272.508 245.128 272.472V254.246C245.128 254.176 245.155 254.109 245.203 254.058C245.251 254.007 245.317 253.976 245.387 253.972L251.008 253.533C251.05 253.53 251.09 253.517 251.126 253.496C251.162 253.475 251.192 253.447 251.215 253.412C251.238 253.378 251.253 253.339 251.259 253.299C251.265 253.258 251.262 253.216 251.249 253.177L249.668 248.274C249.65 248.217 249.614 248.168 249.566 248.134C249.518 248.099 249.459 248.081 249.4 248.082L220.286 248.109C220.229 248.11 220.174 248.128 220.128 248.16C220.081 248.193 220.046 248.239 220.027 248.292L218.336 253.205C218.323 253.244 218.319 253.285 218.325 253.326C218.331 253.367 218.346 253.406 218.369 253.44C218.392 253.474 218.423 253.503 218.459 253.524C218.494 253.544 218.535 253.557 218.576 253.561ZM227.183 229.189C227.167 229.23 227.161 229.275 227.166 229.32C227.171 229.364 227.187 229.407 227.212 229.444C227.238 229.481 227.272 229.511 227.312 229.532C227.352 229.553 227.397 229.563 227.442 229.563L242.327 229.636C242.372 229.637 242.417 229.628 242.457 229.608C242.497 229.588 242.532 229.559 242.558 229.523C242.585 229.487 242.602 229.446 242.608 229.402C242.615 229.358 242.61 229.313 242.595 229.271L235.255 208.917C235.234 208.865 235.199 208.821 235.153 208.79C235.106 208.758 235.052 208.741 234.996 208.741C234.94 208.741 234.885 208.758 234.839 208.79C234.792 208.821 234.757 208.865 234.737 208.917L227.183 229.189Z" fill="#651012"/>
<path d="M331.049 220.343L338.372 206.291C338.525 205.993 338.436 205.816 338.105 205.762L336.433 205.497C336.072 205.436 335.891 205.223 335.891 204.858V188.005C335.891 187.166 336.311 186.749 337.15 186.755L371.328 186.874C371.591 186.88 371.723 187.011 371.723 187.266V204.722C371.722 204.839 371.68 204.952 371.605 205.041C371.529 205.129 371.424 205.188 371.309 205.205L360.541 206.674C360.198 206.717 359.941 206.887 359.77 207.185C353.418 218.263 347.134 229.367 340.917 240.499C339.254 243.474 340.035 249.524 340.025 252.936C340.019 253.295 340.197 253.493 340.558 253.529L347.991 254.287C348.346 254.323 348.524 254.521 348.524 254.88V272.29C348.524 272.594 348.371 272.746 348.065 272.746H313.151C312.845 272.746 312.692 272.594 312.692 272.29V255.263C312.692 254.868 312.888 254.643 313.28 254.588L320.465 253.648C320.796 253.605 320.961 253.42 320.961 253.091V241.74C320.961 241.418 320.878 241.12 320.713 240.846L300.28 207.24C300.016 206.802 299.63 206.553 299.122 206.492L290.247 205.424C289.897 205.382 289.723 205.184 289.723 204.831V187.23C289.723 187.101 289.774 186.978 289.866 186.888C289.957 186.797 290.081 186.746 290.21 186.746H324.866C324.988 186.746 325.104 186.794 325.191 186.88C325.277 186.965 325.325 187.081 325.325 187.202V204.585C325.325 204.925 325.157 205.12 324.82 205.169L323.065 205.451C322.599 205.524 322.48 205.765 322.707 206.172L330.525 220.352C330.703 220.674 330.878 220.671 331.049 220.343Z" fill="#651012"/>
<path d="M149.697 205.96L144.142 205.43C143.792 205.399 143.616 205.208 143.616 204.855L143.589 187.184C143.589 186.892 143.734 186.746 144.024 186.746H178.27C178.572 186.746 178.723 186.898 178.723 187.203V204.489C178.722 204.663 178.659 204.831 178.546 204.96C178.432 205.09 178.276 205.172 178.107 205.192L170.132 206.078C170.007 206.092 169.892 206.151 169.808 206.243C169.724 206.336 169.678 206.456 169.679 206.58C169.643 215.268 169.64 223.946 169.67 232.616C169.7 241.717 169.344 247.778 168.601 250.797C165.429 263.683 154.536 271.901 141.487 272.668C120.336 273.91 106.851 260.139 107.767 238.296C107.797 237.565 108.172 237.2 108.89 237.2H125.692C125.976 237.2 126.121 237.343 126.127 237.629C126.335 246.935 127.558 254.541 139.076 254.131C149.724 253.747 151.065 247.519 151.084 237.93C151.096 227.989 151.087 217.834 151.056 207.466C151.054 207.088 150.913 206.724 150.662 206.445C150.411 206.167 150.067 205.994 149.697 205.96Z" fill="#651012"/>
</svg>
