<svg xmlns="http://www.w3.org/2000/svg"><symbol id="game" viewBox="0 0 24 24"><path d="M21.823,6.461c-.577-1.766-2.055-3.029-3.823-3.365v-.096c0-.552-.448-1-1-1s-1,.448-1,1H8c0-.552-.448-1-1-1s-1,.448-1,1v.096c-1.767,.336-3.246,1.599-3.823,3.365C.37,11.997,0,17.661,0,18.875c0,1.723,1.402,3.125,3.125,3.125,2.534,0,4.943-4.158,5.863-6.357,.163-.391,.526-.643,.926-.643h4.173c.399,0,.763,.252,.926,.643,.919,2.199,3.328,6.357,5.862,6.357,1.723,0,3.125-1.402,3.125-3.125,0-1.214-.37-6.878-2.177-12.414Zm-.948,13.539c-.962,0-2.915-2.492-4.017-5.129-.475-1.137-1.562-1.871-2.771-1.871h-4.173c-1.209,0-2.296,.734-2.771,1.871-1.103,2.637-3.055,5.129-4.018,5.129-.62,0-1.125-.505-1.125-1.125,0-1.146,.353-6.508,2.079-11.792,.407-1.246,1.554-2.083,2.854-2.083h10.134c1.301,0,2.448,.837,2.854,2.083,1.726,5.284,2.079,10.646,2.079,11.792,0,.62-.505,1.125-1.125,1.125ZM9,9.5c0,.828-.672,1.5-1.5,1.5s-1.5-.672-1.5-1.5,.672-1.5,1.5-1.5,1.5,.672,1.5,1.5Zm9,0c0,.828-.672,1.5-1.5,1.5s-1.5-.672-1.5-1.5,.672-1.5,1.5-1.5,1.5,.672,1.5,1.5Z"></path></symbol><symbol id="setting" viewBox="0 0 24 24"><path d="M15,6c0-3.309-2.691-6-6-6S3,2.691,3,6s2.691,6,6,6,6-2.691,6-6Zm-6,4c-2.206,0-4-1.794-4-4s1.794-4,4-4,4,1.794,4,4-1.794,4-4,4Zm-.008,4.938c.068,.548-.32,1.047-.869,1.116-3.491,.436-6.124,3.421-6.124,6.946,0,.552-.448,1-1,1s-1-.448-1-1c0-4.531,3.386-8.37,7.876-8.93,.542-.069,1.047,.32,1.116,.869Zm13.704,4.195l-.974-.562c.166-.497,.278-1.019,.278-1.572s-.111-1.075-.278-1.572l.974-.562c.478-.276,.642-.888,.366-1.366-.277-.479-.887-.644-1.366-.366l-.973,.562c-.705-.794-1.644-1.375-2.723-1.594v-1.101c0-.552-.448-1-1-1s-1,.448-1,1v1.101c-1.079,.22-2.018,.801-2.723,1.594l-.973-.562c-.48-.277-1.09-.113-1.366,.366-.276,.479-.112,1.09,.366,1.366l.974,.562c-.166,.497-.278,1.019-.278,1.572s.111,1.075,.278,1.572l-.974,.562c-.478,.276-.642,.888-.366,1.366,.186,.321,.521,.5,.867,.5,.169,0,.341-.043,.499-.134l.973-.562c.705,.794,1.644,1.375,2.723,1.594v1.101c0,.552,.448,1,1,1s1-.448,1-1v-1.101c1.079-.22,2.018-.801,2.723-1.594l.973,.562c.158,.091,.33,.134,.499,.134,.346,0,.682-.179,.867-.5,.276-.479,.112-1.09-.366-1.366Zm-5.696,.866c-1.654,0-3-1.346-3-3s1.346-3,3-3,3,1.346,3,3-1.346,3-3,3Z"></path></symbol></svg>